HIERARCHY
ROOT Root
{
	OFFSET 0.00000 0.00000 0.00000
	CHANNELS 6 Xposition Yposition Zposition Zrotation Xrotation Yrotation
	JOINT Hips
	{
		OFFSET 0 0 0	
		CHANNELS 3 Zrotation Xrotation Yrotation
		JOINT Spine
		{
			OFFSET 0 4 0	
			CHANNELS 3 Zrotation Xrotation Yrotation
			JOINT Spine1
			{
				OFFSET 0 19.4 0	
				CHANNELS 3 Zrotation Xrotation Yrotation
				JOINT Spine2
				{
					OFFSET 0 16.6 0	
					CHANNELS 3 Zrotation Xrotation Yrotation
					JOINT LeftCollar
					{
						OFFSET 0 10 0	
						CHANNELS 3 Zrotation Xrotation Yrotation
						JOINT LeftArm
						{
							OFFSET 15.6 -2 3	
							CHANNELS 3 Zrotation Xrotation Yrotation
							JOINT LeftForeArm
							{
								OFFSET 3.5 -27 -1	
								CHANNELS 3 Zrotation Xrotation Yrotation
								JOINT LeftHand
								{
									OFFSET 1 -27 1	
									CHANNELS 3 Zrotation Xrotation Yrotation
									End Site
									{
										OFFSET 0 -15 0
									}
								}
							}
						}
					}
					JOINT RightCollar
					{
						OFFSET 0 10 0	
						CHANNELS 3 Zrotation Xrotation Yrotation
						JOINT RightArm
						{
							OFFSET -15.6 -2 3	
							CHANNELS 3 Zrotation Xrotation Yrotation
							JOINT RightForeArm
							{
								OFFSET -3.5 -27 -1	
								CHANNELS 3 Zrotation Xrotation Yrotation
								JOINT RightHand
								{
									OFFSET -1 -27 1	
									CHANNELS 3 Zrotation Xrotation Yrotation
									End Site
									{
										OFFSET 0 -15 0
									}
								}
							}
						}
					}
					JOINT Neck
					{
						OFFSET 0 10 0	
						CHANNELS 3 Zrotation Xrotation Yrotation
						JOINT Head
						{
							OFFSET 0 12.7 3	
							CHANNELS 3 Zrotation Xrotation Yrotation
							End Site
							{
								OFFSET 0 12.7 3
							}
						}
					}
				}
			}
		}
	}
	JOINT LeftHip
	{
		OFFSET 0 0 0	
		CHANNELS 3 Zrotation Xrotation Yrotation
		JOINT LeftUpLeg
		{
			OFFSET 8.8 -6 0	
			CHANNELS 3 Zrotation Xrotation Yrotation
			JOINT LeftLeg
			{
				OFFSET 0 -39 2	
				CHANNELS 3 Zrotation Xrotation Yrotation
				JOINT LeftFoot
				{
					OFFSET 0 -43 -2	
					CHANNELS 3 Zrotation Xrotation Yrotation
					JOINT LeftFootFront
					{
						OFFSET 0 -7 8.5	
						CHANNELS 3 Zrotation Xrotation Yrotation
						End Site
						{
							OFFSET 0 -0.5 9
						}
					}
				}
				JOINT LeftHeel
				{
					OFFSET 0 -43 -2	
					CHANNELS 3 Zrotation Xrotation Yrotation
					End Site
					{
						OFFSET 0 -7.5 -5
					}
				}
			}
		}
	}
	JOINT RightHip
	{
		OFFSET 0 0 0	
		CHANNELS 3 Zrotation Xrotation Yrotation
		JOINT RightUpLeg
		{
			OFFSET -8.8 -6 0	
			CHANNELS 3 Zrotation Xrotation Yrotation
			JOINT RightLeg
			{
				OFFSET 0 -39 2	
				CHANNELS 3 Zrotation Xrotation Yrotation
				JOINT RightFoot
				{
					OFFSET 0 -43 -2	
					CHANNELS 3 Zrotation Xrotation Yrotation
					JOINT RightFootFront
					{
						OFFSET 0 -7 8.5	
						CHANNELS 3 Zrotation Xrotation Yrotation
						End Site
						{
							OFFSET 0 -0.5 9
						}
					}
				}
				JOINT RightHeel
				{
					OFFSET 0 -43 -2	
					CHANNELS 3 Zrotation Xrotation Yrotation
					End Site
					{
						OFFSET 0 -7.5 -5
					}
				}
			}
		}
	}
}
MOTION
Frames: 30
Frame Time: 0.025
0 95.5 0 -0 0 -0 -0 0 -0 -0 0 -0 -4.2144 26.743 5.8495 -0 0 -0 -0 0 -0 -13.517 -7.0111 0.14295 29.002 -23.144 2.8714 -0 0 -0 -0 0 -0 1.7275 -27.059 -3.9572 3.6545 -5.4809 -5.4794 -0 0 -0 -0 0 -0 -0 0 -0 -0 0 -0 -0 0 -0 -0 0 -0 -0 0 -0 -0 0 -0 -0 0 -0 -0 0 -0 -0 0 -0 -0 0 -0 -0 0 -0 -0 0 -0 -0 0 -0 
0 95.5 0 -0 0 -0 -0 0 -0 -0 0 -0 -4.2016 26.734 5.852 -0 0 -0 -0 0 -0 -13.534 -6.9892 0.18664 29 -23.181 2.8207 -0 0 -0 -0 0 -0 1.709 -27.052 -3.9724 3.6666 -5.4798 -5.4475 -0 0 -0 -0 0 -0 -0 0 -0 -0 0 -0 -0 0 -0 -0 0 -0 -0 0 -0 -0 0 -0 -0 0 -0 -0 0 -0 -0 0 -0 -0 0 -0 -0 0 -0 -0 0 -0 -0 0 -0 
0 95.5 0 -0 0 -0 -0 0 -0 -0 0 -0 -4.1839 26.722 5.8555 -0 0 -0 -0 0 -0 -13.556 -6.9605 0.23688 29.001 -23.226 2.7589 -0 0 -0 -0 0 -0 1.6832 -27.042 -3.9937 3.6834 -5.4781 -5.4028 -0 0 -0 -0 0 -0 -0 0 -0 -0 0 -0 -0 0 -0 -0 0 -0 -0 0 -0 -0 0 -0 -0 0 -0 -0 0 -0 -0 0 -0 -0 0 -0 -0 0 -0 -0 0 -0 -0 0 -0 
0 95.5 0 -0 0 -0 -0 0 -0 -0 0 -0 -4.1683 26.708 5.8618 -0 0 -0 -0 0 -0 -13.575 -6.933 0.25768 29.011 -23.255 2.7222 -0 0 -0 -0 0 -0 1.6582 -27.032 -4.0175 3.7011 -5.476 -5.357 -0 0 -0 -0 0 -0 -0 0 -0 -0 0 -0 -0 0 -0 -0 0 -0 -0 0 -0 -0 0 -0 -0 0 -0 -0 0 -0 -0 0 -0 -0 0 -0 -0 0 -0 -0 0 -0 -0 0 -0 
0 95.5 0 -0 0 -0 -0 0 -0 -0 0 -0 -4.1559 26.693 5.8653 -0 0 -0 -0 0 -0 -13.586 -6.9055 0.24856 29.03 -23.269 2.7203 -0 0 -0 -0 0 -0 1.6378 -27.019 -4.0362 3.7185 -5.4735 -5.3183 -0 0 -0 -0 0 -0 -0 0 -0 -0 0 -0 -0 0 -0 -0 0 -0 -0 0 -0 -0 0 -0 -0 0 -0 -0 0 -0 -0 0 -0 -0 0 -0 -0 0 -0 -0 0 -0 -0 0 -0 
0 95.5 0 -0 0 -0 -0 0 -0 -0 0 -0 -4.1393 26.682 5.8581 -0 0 -0 -0 0 -0 -13.596 -6.8793 0.22704 29.055 -23.281 2.7465 -0 0 -0 -0 0 -0 1.6179 -27.007 -4.0437 3.7342 -5.4713 -5.2962 -0 0 -0 -0 0 -0 -0 0 -0 -0 0 -0 -0 0 -0 -0 0 -0 -0 0 -0 -0 0 -0 -0 0 -0 -0 0 -0 -0 0 -0 -0 0 -0 -0 0 -0 -0 0 -0 -0 0 -0 
0 95.5 0 -0 0 -0 -0 0 -0 -0 0 -0 -4.1234 26.683 5.85 -0 0 -0 -0 0 -0 -13.605 -6.86 0.20077 29.082 -23.301 2.7885 -0 0 -0 -0 0 -0 1.5989 -27.006 -4.0484 3.7464 -5.4707 -5.2865 -0 0 -0 -0 0 -0 -0 0 -0 -0 0 -0 -0 0 -0 -0 0 -0 -0 0 -0 -0 0 -0 -0 0 -0 -0 0 -0 -0 0 -0 -0 0 -0 -0 0 -0 -0 0 -0 -0 0 -0 
0 95.5 0 -0 0 -0 -0 0 -0 -0 0 -0 -4.1164 26.691 5.8574 -0 0 -0 -0 0 -0 -13.614 -6.8408 0.1741 29.106 -23.333 2.824 -0 0 -0 -0 0 -0 1.5826 -27.011 -4.0658 3.7533 -5.4726 -5.2816 -0 0 -0 -0 0 -0 -0 0 -0 -0 0 -0 -0 0 -0 -0 0 -0 -0 0 -0 -0 0 -0 -0 0 -0 -0 0 -0 -0 0 -0 -0 0 -0 -0 0 -0 -0 0 -0 -0 0 -0 
0 95.5 0 -0 0 -0 -0 0 -0 -0 0 -0 -4.1107 26.697 5.8692 -0 0 -0 -0 0 -0 -13.625 -6.8177 0.16368 29.127 -23.376 2.8361 -0 0 -0 -0 0 -0 1.5668 -27.015 -4.0873 3.7571 -5.4741 -5.2807 -0 0 -0 -0 0 -0 -0 0 -0 -0 0 -0 -0 0 -0 -0 0 -0 -0 0 -0 -0 0 -0 -0 0 -0 -0 0 -0 -0 0 -0 -0 0 -0 -0 0 -0 -0 0 -0 -0 0 -0 
0 95.5 0 -0 0 -0 -0 0 -0 -0 0 -0 -4.0977 26.697 5.8674 -0 0 -0 -0 0 -0 -13.638 -6.7936 0.17524 29.141 -23.423 2.8357 -0 0 -0 -0 0 -0 1.5499 -27.015 -4.0969 3.761 -5.4706 -5.2837 -0 0 -0 -0 0 -0 -0 0 -0 -0 0 -0 -0 0 -0 -0 0 -0 -0 0 -0 -0 0 -0 -0 0 -0 -0 0 -0 -0 0 -0 -0 0 -0 -0 0 -0 -0 0 -0 -0 0 -0 
0 95.5 0 -0 0 -0 -0 0 -0 -0 0 -0 -4.0806 26.693 5.858 -0 0 -0 -0 0 -0 -13.648 -6.771 0.18733 29.153 -23.464 2.8379 -0 0 -0 -0 0 -0 1.5324 -27.013 -4.0994 3.7635 -5.4635 -5.2837 -0 0 -0 -0 0 -0 -0 0 -0 -0 0 -0 -0 0 -0 -0 0 -0 -0 0 -0 -0 0 -0 -0 0 -0 -0 0 -0 -0 0 -0 -0 0 -0 -0 0 -0 -0 0 -0 -0 0 -0 
0 95.5 0 -0 0 -0 -0 0 -0 -0 0 -0 -4.0628 26.689 5.849 -0 0 -0 -0 0 -0 -13.657 -6.7524 0.18291 29.167 -23.49 2.8484 -0 0 -0 -0 0 -0 1.5136 -27.009 -4.1023 3.7646 -5.4579 -5.2739 -0 0 -0 -0 0 -0 -0 0 -0 -0 0 -0 -0 0 -0 -0 0 -0 -0 0 -0 -0 0 -0 -0 0 -0 -0 0 -0 -0 0 -0 -0 0 -0 -0 0 -0 -0 0 -0 -0 0 -0 
0 95.5 0 -0 0 -0 -0 0 -0 -0 0 -0 -4.0444 26.683 5.8388 -0 0 -0 -0 0 -0 -13.667 -6.7409 0.16457 29.184 -23.502 2.8634 -0 0 -0 -0 0 -0 1.4941 -27.004 -4.1046 3.7663 -5.4569 -5.2539 -0 0 -0 -0 0 -0 -0 0 -0 -0 0 -0 -0 0 -0 -0 0 -0 -0 0 -0 -0 0 -0 -0 0 -0 -0 0 -0 -0 0 -0 -0 0 -0 -0 0 -0 -0 0 -0 -0 0 -0 
0 95.5 0 -0 0 -0 -0 0 -0 -0 0 -0 -4.0264 26.675 5.8271 -0 0 -0 -0 0 -0 -13.676 -6.7325 0.14335 29.201 -23.507 2.8791 -0 0 -0 -0 0 -0 1.4758 -26.994 -4.1064 3.7711 -5.4571 -5.2345 -0 0 -0 -0 0 -0 -0 0 -0 -0 0 -0 -0 0 -0 -0 0 -0 -0 0 -0 -0 0 -0 -0 0 -0 -0 0 -0 -0 0 -0 -0 0 -0 -0 0 -0 -0 0 -0 -0 0 -0 
0 95.5 0 -0 0 -0 -0 0 -0 -0 0 -0 -4.0104 26.664 5.8167 -0 0 -0 -0 0 -0 -13.682 -6.7185 0.12711 29.21 -23.515 2.8999 -0 0 -0 -0 0 -0 1.4596 -26.981 -4.1096 3.7792 -5.4558 -5.2242 -0 0 -0 -0 0 -0 -0 0 -0 -0 0 -0 -0 0 -0 -0 0 -0 -0 0 -0 -0 0 -0 -0 0 -0 -0 0 -0 -0 0 -0 -0 0 -0 -0 0 -0 -0 0 -0 -0 0 -0 
0 95.5 0 -0 0 -0 -0 0 -0 -0 0 -0 -4.0012 26.652 5.8137 -0 0 -0 -0 0 -0 -13.68 -6.6985 0.11523 29.214 -23.529 2.9245 -0 0 -0 -0 0 -0 1.448 -26.967 -4.117 3.789 -5.4542 -5.2141 -0 0 -0 -0 0 -0 -0 0 -0 -0 0 -0 -0 0 -0 -0 0 -0 -0 0 -0 -0 0 -0 -0 0 -0 -0 0 -0 -0 0 -0 -0 0 -0 -0 0 -0 -0 0 -0 -0 0 -0 
0 95.5 0 -0 0 -0 -0 0 -0 -0 0 -0 -3.9973 26.637 5.8151 -0 0 -0 -0 0 -0 -13.674 -6.6782 0.10759 29.212 -23.542 2.9435 -0 0 -0 -0 0 -0 1.4405 -26.952 -4.1256 3.7997 -5.4558 -5.1965 -0 0 -0 -0 0 -0 -0 0 -0 -0 0 -0 -0 0 -0 -0 0 -0 -0 0 -0 -0 0 -0 -0 0 -0 -0 0 -0 -0 0 -0 -0 0 -0 -0 0 -0 -0 0 -0 -0 0 -0 
0 95.5 0 -0 0 -0 -0 0 -0 -0 0 -0 -3.994 26.62 5.8131 -0 0 -0 -0 0 -0 -13.671 -6.66 0.10746 29.21 -23.55 2.9547 -0 0 -0 -0 0 -0 1.4354 -26.937 -4.1302 3.8125 -5.4588 -5.1756 -0 0 -0 -0 0 -0 -0 0 -0 -0 0 -0 -0 0 -0 -0 0 -0 -0 0 -0 -0 0 -0 -0 0 -0 -0 0 -0 -0 0 -0 -0 0 -0 -0 0 -0 -0 0 -0 -0 0 -0 
0 95.5 0 -0 0 -0 -0 0 -0 -0 0 -0 -3.9918 26.607 5.8115 -0 0 -0 -0 0 -0 -13.672 -6.6482 0.11139 29.204 -23.556 2.9624 -0 0 -0 -0 0 -0 1.4304 -26.929 -4.1349 3.83 -5.461 -5.1565 -0 0 -0 -0 0 -0 -0 0 -0 -0 0 -0 -0 0 -0 -0 0 -0 -0 0 -0 -0 0 -0 -0 0 -0 -0 0 -0 -0 0 -0 -0 0 -0 -0 0 -0 -0 0 -0 -0 0 -0 
0 95.5 0 -0 0 -0 -0 0 -0 -0 0 -0 -3.9936 26.598 5.8148 -0 0 -0 -0 0 -0 -13.67 -6.6427 0.11852 29.19 -23.56 2.9681 -0 0 -0 -0 0 -0 1.4263 -26.924 -4.143 3.8524 -5.4635 -5.138 -0 0 -0 -0 0 -0 -0 0 -0 -0 0 -0 -0 0 -0 -0 0 -0 -0 0 -0 -0 0 -0 -0 0 -0 -0 0 -0 -0 0 -0 -0 0 -0 -0 0 -0 -0 0 -0 -0 0 -0 
0 95.5 0 -0 0 -0 -0 0 -0 -0 0 -0 -3.994 26.592 5.8124 -0 0 -0 -0 0 -0 -13.668 -6.6407 0.13663 29.171 -23.567 2.9687 -0 0 -0 -0 0 -0 1.4233 -26.919 -4.1452 3.8758 -5.4686 -5.1175 -0 0 -0 -0 0 -0 -0 0 -0 -0 0 -0 -0 0 -0 -0 0 -0 -0 0 -0 -0 0 -0 -0 0 -0 -0 0 -0 -0 0 -0 -0 0 -0 -0 0 -0 -0 0 -0 -0 0 -0 
0 95.5 0 -0 0 -0 -0 0 -0 -0 0 -0 -3.9889 26.587 5.7986 -0 0 -0 -0 0 -0 -13.671 -6.6412 0.16425 29.157 -23.575 2.9649 -0 0 -0 -0 0 -0 1.4202 -26.913 -4.1373 3.8979 -5.4768 -5.0933 -0 0 -0 -0 0 -0 -0 0 -0 -0 0 -0 -0 0 -0 -0 0 -0 -0 0 -0 -0 0 -0 -0 0 -0 -0 0 -0 -0 0 -0 -0 0 -0 -0 0 -0 -0 0 -0 -0 0 -0 
0 95.5 0 -0 0 -0 -0 0 -0 -0 0 -0 -3.9829 26.578 5.7842 -0 0 -0 -0 0 -0 -13.677 -6.6422 0.18698 29.149 -23.578 2.9617 -0 0 -0 -0 0 -0 1.4176 -26.902 -4.128 3.919 -5.4867 -5.0675 -0 0 -0 -0 0 -0 -0 0 -0 -0 0 -0 -0 0 -0 -0 0 -0 -0 0 -0 -0 0 -0 -0 0 -0 -0 0 -0 -0 0 -0 -0 0 -0 -0 0 -0 -0 0 -0 -0 0 -0 
0 95.5 0 -0 0 -0 -0 0 -0 -0 0 -0 -3.9786 26.567 5.7773 -0 0 -0 -0 0 -0 -13.683 -6.6426 0.19542 29.144 -23.579 2.9629 -0 0 -0 -0 0 -0 1.4143 -26.888 -4.1256 3.9376 -5.4965 -5.0464 -0 0 -0 -0 0 -0 -0 0 -0 -0 0 -0 -0 0 -0 -0 0 -0 -0 0 -0 -0 0 -0 -0 0 -0 -0 0 -0 -0 0 -0 -0 0 -0 -0 0 -0 -0 0 -0 -0 0 -0 
0 95.5 0 -0 0 -0 -0 0 -0 -0 0 -0 -3.9731 26.556 5.7759 -0 0 -0 -0 0 -0 -13.691 -6.6423 0.1931 29.14 -23.58 2.9666 -0 0 -0 -0 0 -0 1.4089 -26.877 -4.1293 3.9529 -5.5047 -5.0343 -0 0 -0 -0 0 -0 -0 0 -0 -0 0 -0 -0 0 -0 -0 0 -0 -0 0 -0 -0 0 -0 -0 0 -0 -0 0 -0 -0 0 -0 -0 0 -0 -0 0 -0 -0 0 -0 -0 0 -0 
0 95.5 0 -0 0 -0 -0 0 -0 -0 0 -0 -3.9679 26.545 5.7777 -0 0 -0 -0 0 -0 -13.698 -6.6419 0.18535 29.135 -23.582 2.97 -0 0 -0 -0 0 -0 1.4041 -26.866 -4.1359 3.9656 -5.5118 -5.0308 -0 0 -0 -0 0 -0 -0 0 -0 -0 0 -0 -0 0 -0 -0 0 -0 -0 0 -0 -0 0 -0 -0 0 -0 -0 0 -0 -0 0 -0 -0 0 -0 -0 0 -0 -0 0 -0 -0 0 -0 
0 95.5 0 -0 0 -0 -0 0 -0 -0 0 -0 -3.9645 26.531 5.7814 -0 0 -0 -0 0 -0 -13.702 -6.6392 0.1753 29.132 -23.581 2.9735 -0 0 -0 -0 0 -0 1.3993 -26.852 -4.1452 3.9795 -5.5171 -5.0316 -0 0 -0 -0 0 -0 -0 0 -0 -0 0 -0 -0 0 -0 -0 0 -0 -0 0 -0 -0 0 -0 -0 0 -0 -0 0 -0 -0 0 -0 -0 0 -0 -0 0 -0 -0 0 -0 -0 0 -0 
0 95.5 0 -0 0 -0 -0 0 -0 -0 0 -0 -3.9619 26.509 5.7832 -0 0 -0 -0 0 -0 -13.704 -6.6339 0.16953 29.131 -23.575 2.9726 -0 0 -0 -0 0 -0 1.3944 -26.832 -4.1539 3.9964 -5.5225 -5.0284 -0 0 -0 -0 0 -0 -0 0 -0 -0 0 -0 -0 0 -0 -0 0 -0 -0 0 -0 -0 0 -0 -0 0 -0 -0 0 -0 -0 0 -0 -0 0 -0 -0 0 -0 -0 0 -0 -0 0 -0 
0 95.5 0 -0 0 -0 -0 0 -0 -0 0 -0 -3.9596 26.484 5.7812 -0 0 -0 -0 0 -0 -13.706 -6.6307 0.16838 29.128 -23.562 2.9699 -0 0 -0 -0 0 -0 1.3916 -26.808 -4.1588 4.0144 -5.5314 -5.0188 -0 0 -0 -0 0 -0 -0 0 -0 -0 0 -0 -0 0 -0 -0 0 -0 -0 0 -0 -0 0 -0 -0 0 -0 -0 0 -0 -0 0 -0 -0 0 -0 -0 0 -0 -0 0 -0 -0 0 -0 
0 95.5 0 -0 0 -0 -0 0 -0 -0 0 -0 -3.9571 26.458 5.7751 -0 0 -0 -0 0 -0 -13.707 -6.6256 0.17262 29.124 -23.554 2.9672 -0 0 -0 -0 0 -0 1.3915 -26.781 -4.1585 4.0332 -5.5419 -5.0069 -0 0 -0 -0 0 -0 -0 0 -0 -0 0 -0 -0 0 -0 -0 0 -0 -0 0 -0 -0 0 -0 -0 0 -0 -0 0 -0 -0 0 -0 -0 0 -0 -0 0 -0 -0 0 -0 -0 0 -0 
